<svg xmlns="http://www.w3.org/2000/svg" xmlns:xlink="http://www.w3.org/1999/xlink" version="1.1" x="0px" y="0px" viewBox="0 0 100 125" enable-background="new 0 0 100 100" xml:space="preserve"><path d="M38.967,40.072l-10,9.928l10,9.93l2.547-2.566L34.1,50l7.414-7.361L38.967,40.072z M41.702,62.751l3.32,1.434l11.629-26.936  l-3.32-1.434L41.702,62.751z M58.484,42.639L65.899,50l-7.415,7.363l2.549,2.566L71.032,50l-9.999-9.928L58.484,42.639z M50,14.61  c-19.515,0-35.391,15.875-35.391,35.39S30.485,85.391,50,85.391S85.391,69.515,85.391,50S69.515,14.61,50,14.61z M50,81.773  c-17.521,0-31.775-14.253-31.775-31.773S32.479,18.226,50,18.226S81.773,32.479,81.773,50S67.521,81.773,50,81.773z"/><text x="0" y="115" fill="#000000" font-size="5px" font-weight="bold" font-family="'Helvetica Neue', Helvetica, Arial-Unicode, Arial, Sans-serif">Created by Sergey Demushkin</text><text x="0" y="120" fill="#000000" font-size="5px" font-weight="bold" font-family="'Helvetica Neue', Helvetica, Arial-Unicode, Arial, Sans-serif">from the Noun Project</text></svg>